<svg width="24" height="25" viewBox="0 0 24 25" fill="none" xmlns="http://www.w3.org/2000/svg">
<path d="M15 22.9167V18.75C15.1391 17.4451 14.7799 16.1355 14 15.1042C17 15.1042 20 13.0208 20 9.375C20.08 8.07292 19.73 6.79167 19 5.72917C19.28 4.53125 19.28 3.28125 19 2.08334C19 2.08334 18 2.08334 16 3.64584C13.36 3.125 10.64 3.125 8 3.64584C6 2.08334 5 2.08334 5 2.08334C4.7 3.28125 4.7 4.53125 5 5.72917C4.27187 6.78738 3.91847 8.07582 4 9.375C4 13.0208 7 15.1042 10 15.1042C9.61 15.6146 9.32 16.1979 9.15 16.8229C8.98 17.4479 8.93 18.1042 9 18.75V22.9167" stroke="white" stroke-width="2" stroke-linecap="round" stroke-linejoin="round"/>
<path d="M9 18.75C4.49 20.8333 4 16.6667 2 16.6667" stroke="white" stroke-width="2" stroke-linecap="round" stroke-linejoin="round"/>
</svg>
